# xmcd
#
# Track frame offsets:
#	150
#	63194
#	84893
#	116087
#	148535
#	197992
#	210184
#
# Disc length: 3134 seconds
#
# Revision: 1
# Processed by: cddbd v1.5.2PL0 Copyright (c) Steve Scherf et al.
# Submitted via: audiograbber 1.83.01
#
DISCID=590c3c07
DTITLE=Grateful Dead - 77-02-26 Swing Theatre, San Bernardino CA
DYEAR=1900
DGENRE=
TTITLE0=Terrapin Station
TTITLE1=New Minglewood Blues
TTITLE2=They Love Each Other
TTITLE3=Estimated Prophet
TTITLE4=Sugaree
TTITLE5=Mama Tried
TTITLE6=Deal
EXTD=
EXTT0=
EXTT1=
EXTT2=
EXTT3=
EXTT4=
EXTT5=
EXTT6=
PLAYORDER=
